<?xml version="1.0" standalone="no"?>
<!DOCTYPE svg PUBLIC "-//W3C//DTD SVG 20010904//EN"
 "http://www.w3.org/TR/2001/REC-SVG-20010904/DTD/svg10.dtd">
<svg version="1.0" xmlns="http://www.w3.org/2000/svg"
 width="118.000000pt" height="30.000000pt" viewBox="0 0 118.000000 30.000000"
 preserveAspectRatio="xMidYMid meet">

<g transform="translate(0.000000,30.000000) scale(0.100000,-0.100000)"
fill="#000000" stroke="none">
<path d="M20 130 c0 -64 3 -80 15 -80 10 0 15 10 15 30 0 28 3 30 35 30 47 0
67 36 41 75 -14 21 -24 25 -61 25 l-45 0 0 -80z m78 51 c23 -14 10 -46 -21
-49 -24 -3 -27 0 -27 27 0 32 19 41 48 22z"/>
<path d="M550 130 c0 -64 3 -80 15 -80 12 0 15 16 15 80 0 64 -3 80 -15 80
-12 0 -15 -16 -15 -80z"/>
<path d="M820 141 c-11 -37 -20 -73 -20 -80 0 -19 18 -12 25 9 9 28 61 28 70
0 7 -21 25 -28 25 -9 0 6 -9 42 -21 80 -16 53 -25 69 -40 69 -14 0 -23 -16
-39 -69z m50 15 c0 -8 3 -21 6 -30 4 -12 0 -16 -15 -16 -23 0 -24 3 -15 38 7
24 24 30 24 8z"/>
<path d="M950 130 c0 -64 3 -80 15 -80 12 0 15 16 15 80 0 64 -3 80 -15 80
-12 0 -15 -16 -15 -80z"/>
<path d="M167 152 c-22 -24 -21 -65 1 -85 29 -26 82 -19 82 10 0 10 -6 13 -17
8 -20 -7 -23 -8 -40 -6 -7 0 -13 6 -13 11 0 6 18 10 40 10 44 0 50 11 24 48
-18 27 -55 29 -77 4z m63 -23 c0 -5 -11 -9 -25 -9 -26 0 -34 15 -12 23 16 5
37 -3 37 -14z"/>
<path d="M297 152 c-35 -38 -9 -102 40 -102 47 0 71 71 35 103 -24 22 -55 21
-75 -1z m63 -42 c0 -29 -14 -41 -37 -32 -17 6 -17 59 0 65 23 8 37 -5 37 -33z"/>
<path d="M410 96 c0 -61 3 -76 15 -76 8 0 15 6 15 14 0 8 12 16 27 18 17 2 33
13 43 31 13 24 13 30 0 55 -13 22 -24 28 -58 30 l-42 3 0 -75z m80 15 c0 -23
-19 -41 -36 -34 -17 6 -18 60 -1 66 16 6 37 -12 37 -32z"/>
<path d="M617 152 c-22 -24 -21 -65 1 -85 29 -26 82 -19 82 10 0 10 -6 13 -17
8 -20 -7 -23 -8 -40 -6 -7 0 -13 6 -13 11 0 6 18 10 40 10 44 0 50 11 24 48
-18 27 -55 29 -77 4z m63 -23 c0 -5 -11 -9 -25 -9 -26 0 -34 15 -12 23 16 5
37 -3 37 -14z"/>
<path d="M740 60 c0 -5 7 -10 15 -10 8 0 15 5 15 10 0 6 -7 10 -15 10 -8 0
-15 -4 -15 -10z"/>
</g>
</svg>
